<svg xmlns="http://www.w3.org/2000/svg" version="1.1" xmlns:xlink="http://www.w3.org/1999/xlink" xmlns:svgjs="http://svgjs.dev/svgjs" width="2000" height="297" viewBox="0 0 2000 297"><g transform="matrix(1,0,0,1,-1.2121212121212466,-0.16887305407604458)"><svg viewBox="0 0 396 59" data-background-color="#ffffff" preserveAspectRatio="xMidYMid meet" height="297" width="2000" xmlns="http://www.w3.org/2000/svg" xmlns:xlink="http://www.w3.org/1999/xlink"><g id="tight-bounds" transform="matrix(1,0,0,1,0.2400000000000091,0.033547172358538546)"><svg viewBox="0 0 395.52 58.9329056552829" height="58.9329056552829" width="395.52"><g><svg viewBox="0 0 479.1009517128116 71.38655740960603" height="58.9329056552829" width="395.52"><g transform="matrix(1,0,0,1,83.58095171281164,9.866014808418779)"><svg viewBox="0 0 395.52 51.65452779276847" height="51.65452779276847" width="395.52"><g id="textblocktransform"><svg viewBox="0 0 395.52 51.65452779276847" height="51.65452779276847" width="395.52" id="textblock"><g><svg viewBox="0 0 395.52 51.65452779276847" height="51.65452779276847" width="395.52"><g transform="matrix(1,0,0,1,0,0)"><svg width="395.52" viewBox="1.5499999999999998 -35.65 277.93 36.3" height="51.65452779276847" data-palette-color="#0a2148"><path d="M28.75 0L9.5 0Q5.95 0 3.75-2.15 1.55-4.3 1.55-7.65L1.55-7.65Q1.55-9.25 2.2-10.73 2.85-12.2 4.35-13.5L4.35-13.5 19.25-26.8Q19.35-26.9 19.43-27.03 19.5-27.15 19.5-27.3L19.5-27.3Q19.5-27.5 19.38-27.68 19.25-27.85 19.07-27.95 18.9-28.05 18.7-28.05L18.7-28.05 2.4-28.05 2.4-35 20.55-35Q22.95-35 24.73-34.02 26.5-33.05 27.5-31.33 28.5-29.6 28.5-27.35L28.5-27.35Q28.5-25.75 27.88-24.28 27.25-22.8 25.9-21.6L25.9-21.6 10.8-8.25Q10.75-8.2 10.68-8.1 10.6-8 10.58-7.93 10.55-7.85 10.55-7.7L10.55-7.7Q10.55-7.5 10.65-7.33 10.75-7.15 10.95-7.05 11.15-6.95 11.4-6.95L11.4-6.95 28.75-6.95 28.75 0ZM57.35 0L42.7 0Q39.75 0 37.35-1.38 34.95-2.75 33.52-5.08 32.1-7.4 32.1-10.35L32.1-10.35Q32.1-12.55 33.07-14.48 34.05-16.4 35.7-17.8L35.7-17.8Q34.1-19.15 33.17-21 32.25-22.85 32.25-24.9L32.25-24.9Q32.25-27.8 33.65-30.08 35.05-32.35 37.4-33.68 39.75-35 42.6-35L42.6-35 57.35-35 57.35-27.95 43.9-28Q42.95-28 42.15-27.55 41.35-27.1 40.87-26.35 40.4-25.6 40.4-24.6L40.4-24.6Q40.4-23.65 40.87-22.88 41.35-22.1 42.15-21.68 42.95-21.25 43.9-21.25L43.9-21.25 55.65-21.25 55.65-14.25 44.15-14.25Q43.1-14.25 42.25-13.75 41.4-13.25 40.9-12.45 40.4-11.65 40.4-10.6L40.4-10.6Q40.4-9.6 40.9-8.78 41.4-7.95 42.25-7.5 43.1-7.05 44.15-7.05L44.15-7.05 57.35-7.05 57.35 0ZM87 0.6L87 0.6Q83.84 0.6 81.34-0.78 78.84-2.15 77.4-4.6 75.95-7.05 75.95-10.15L75.95-10.15 75.95-25.45Q75.95-26.25 75.55-26.9 75.15-27.55 74.5-27.95 73.84-28.35 73.05-28.35L73.05-28.35Q72.25-28.35 71.59-27.95 70.95-27.55 70.57-26.9 70.2-26.25 70.2-25.45L70.2-25.45 70.2 0 62 0 62-24.85Q62-28 63.42-30.4 64.84-32.8 67.37-34.2 69.9-35.6 73.05-35.6L73.05-35.6Q76.25-35.6 78.75-34.2 81.25-32.8 82.7-30.4 84.15-28 84.15-24.85L84.15-24.85 84.15-9.55Q84.15-8.75 84.55-8.08 84.95-7.4 85.57-7.03 86.2-6.65 86.95-6.65L86.95-6.65Q87.75-6.65 88.42-7.03 89.09-7.4 89.5-8.08 89.9-8.75 89.9-9.55L89.9-9.55 89.9-35 98.05-35 98.05-10.15Q98.05-7.05 96.59-4.6 95.15-2.15 92.65-0.78 90.15 0.6 87 0.6ZM124.74 0L103.84 0 103.84-35 124.14-35Q126.74-35 128.87-33.85 130.99-32.7 132.27-30.65 133.54-28.6 133.54-25.8L133.54-25.8Q133.54-24.15 132.92-22.65 132.29-21.15 131.17-20 130.04-18.85 128.59-18.15L128.59-18.15Q130.29-17.45 131.62-16.15 132.94-14.85 133.72-13.15 134.49-11.45 134.49-9.5L134.49-9.5Q134.49-6.65 133.17-4.5 131.84-2.35 129.64-1.18 127.44 0 124.74 0L124.74 0ZM112.24-14.35L112.24-6.95 122.54-6.95Q123.59-6.95 124.42-7.45 125.24-7.95 125.74-8.8 126.24-9.65 126.24-10.65L126.24-10.65Q126.24-11.7 125.74-12.53 125.24-13.35 124.42-13.85 123.59-14.35 122.54-14.35L122.54-14.35 112.24-14.35ZM112.24-28L112.24-21.05 121.69-21.05Q122.69-21.05 123.47-21.53 124.24-22 124.69-22.78 125.14-23.55 125.14-24.5L125.14-24.5Q125.14-25.5 124.69-26.28 124.24-27.05 123.47-27.53 122.69-28 121.69-28L121.69-28 112.24-28ZM156.29 0.65L156.29 0.65Q152.09 0.65 148.69-0.75 145.29-2.15 142.84-4.65 140.39-7.15 139.07-10.45 137.74-13.75 137.74-17.55L137.74-17.55Q137.74-21.35 139.07-24.63 140.39-27.9 142.84-30.4 145.29-32.9 148.69-34.27 152.09-35.65 156.29-35.65L156.29-35.65Q160.44-35.65 163.87-34.27 167.29-32.9 169.72-30.4 172.14-27.9 173.49-24.63 174.84-21.35 174.84-17.55L174.84-17.55Q174.84-13.75 173.49-10.45 172.14-7.15 169.72-4.65 167.29-2.15 163.87-0.75 160.44 0.65 156.29 0.65ZM156.29-6.5L156.29-6.5Q158.49-6.5 160.37-7.33 162.24-8.15 163.59-9.65 164.94-11.15 165.69-13.18 166.44-15.2 166.44-17.55L166.44-17.55Q166.44-19.9 165.69-21.9 164.94-23.9 163.59-25.4 162.24-26.9 160.37-27.73 158.49-28.55 156.29-28.55L156.29-28.55Q154.04-28.55 152.19-27.73 150.34-26.9 148.97-25.4 147.59-23.9 146.87-21.9 146.14-19.9 146.14-17.55L146.14-17.55Q146.14-15.2 146.87-13.18 147.59-11.15 148.97-9.65 150.34-8.15 152.19-7.33 154.04-6.5 156.29-6.5ZM183.49 0L174.74 0 186.09-30.95Q186.94-33.25 188.89-34.43 190.84-35.6 193.29-35.6L193.29-35.6Q195.74-35.6 197.69-34.48 199.64-33.35 200.49-31L200.49-31 211.89 0 202.84 0 200.64-6.75 185.79-6.75 183.49 0ZM192.69-27.65L187.94-13.7 198.49-13.7 194.04-27.65Q193.94-27.95 193.76-28.08 193.59-28.2 193.34-28.2L193.34-28.2Q193.09-28.2 192.91-28.05 192.74-27.9 192.69-27.65L192.69-27.65ZM222.59 0L214.19 0 214.19-35 230.19-35Q233.74-35 236.66-33.45 239.59-31.9 241.31-29.15 243.04-26.4 243.04-22.8L243.04-22.8Q243.04-19.45 241.44-16.78 239.84-14.1 237.24-12.45L237.24-12.45 240.04-7.7Q240.29-7.35 240.61-7.15 240.94-6.95 241.49-6.95L241.49-6.95 244.59-6.95 244.59 0 239.69 0Q237.44 0 235.59-1.07 233.74-2.15 232.69-3.9L232.69-3.9 228.94-10.55Q228.59-10.55 228.21-10.55 227.84-10.55 227.44-10.55L227.44-10.55 222.59-10.55 222.59 0ZM222.59-28L222.59-17.5 229.24-17.5Q230.69-17.5 231.94-18.13 233.19-18.75 233.91-19.93 234.64-21.1 234.64-22.75L234.64-22.75Q234.64-24.4 233.89-25.58 233.14-26.75 231.91-27.38 230.69-28 229.24-28L229.24-28 222.59-28ZM261.23 0L248.38 0 248.38-35 261.23-35Q266.78-35 270.86-32.75 274.93-30.5 277.21-26.55 279.48-22.6 279.48-17.5L279.48-17.5Q279.48-12.4 277.21-8.45 274.93-4.5 270.86-2.25 266.78 0 261.23 0L261.23 0ZM256.78-28L256.78-7 261.03-7Q263.93-7 266.21-8.28 268.48-9.55 269.78-11.9 271.08-14.25 271.08-17.5L271.08-17.5Q271.08-20.75 269.78-23.1 268.48-25.45 266.21-26.73 263.93-28 261.03-28L261.03-28 256.78-28Z" opacity="1" transform="matrix(1,0,0,1,0,0)" fill="#0a2148" class="wordmark-text-0" data-fill-palette-color="primary" id="text-0"></path></svg></g></svg></g></svg></g></svg></g><g><svg viewBox="0 0 71.38655740960603 71.38655740960603" height="71.38655740960603" width="71.38655740960603"><g><svg xmlns="http://www.w3.org/2000/svg" xmlns:xlink="http://www.w3.org/1999/xlink" version="1.1" x="0" y="0" viewBox="0.4999999999999998 0.4999999999999998 47 47" enable-background="new 0 0 48 48" xml:space="preserve" height="71.38655740960603" width="71.38655740960603" class="icon-icon-0" data-fill-palette-color="accent" id="icon-0"><g fill="#0074d9" data-fill-palette-color="accent"><path fill="#0074d9" d="M16.8 47.5H2.3c-1 0-1.8-0.8-1.8-1.8V2.3c0-1 0.8-1.8 1.8-1.8h14.5c1 0 1.8 0.8 1.8 1.8v43.4C18.6 46.7 17.8 47.5 16.8 47.5z" data-fill-palette-color="accent"></path><path fill="#0074d9" d="M45.7 16.9h-17c-1 0-1.8-0.8-1.8-1.8V2.3c0-1 0.8-1.8 1.8-1.8h17c1 0 1.8 0.8 1.8 1.8v12.9C47.5 16.1 46.7 16.9 45.7 16.9z" data-fill-palette-color="accent"></path><path fill="#0074d9" d="M45.7 46.4h-17c-1 0-1.8-0.8-1.8-1.8V27.4c0-1 0.8-1.8 1.8-1.8h17c1 0 1.8 0.8 1.8 1.8v17.1C47.5 45.6 46.7 46.4 45.7 46.4z" data-fill-palette-color="accent"></path></g></svg></g></svg></g></svg></g><defs></defs></svg><rect width="395.52" height="58.9329056552829" fill="none" stroke="none" visibility="hidden"></rect></g></svg></g></svg>